# MagicaVoxel @ Ephtracy

# group
o 

# material
mtllib hospital1.mtl
usemtl palette

# normals
vn -1 0 0
vn 1 0 0
vn 0 0 1
vn 0 0 -1
vn 0 -1 0
vn 0 1 0

# texcoords
vt 0.00976562 0.5
vt 0.0292969 0.5
vt 0.0449219 0.5
vt 0.0957031 0.5
vt 0.681641 0.5
vt 0.705078 0.5
vt 0.865234 0.5
vt 0.982422 0.5

# verts
v -1.6 0 1.6
v -1.6 0 -1.6
v -1.6 0.1 1.6
v -1.6 0.1 0.8
v -1.6 0.1 0.7
v -1.6 0.1 -0.5
v -1.6 0.1 -0.6
v -1.6 0.1 -1.6
v -1.6 0.9 -0.4
v -1.6 0.9 -0.5
v -1.6 1.1 -0.3
v -1.6 1.1 -0.4
v -1.6 1.5 -0.2
v -1.6 1.5 -0.3
v -1.6 1.8 -0.1
v -1.6 1.8 -0.2
v -1.6 2 0
v -1.6 2 -0.1
v -1.6 2.2 0.1
v -1.6 2.2 0
v -1.6 2.3 0.2
v -1.6 2.3 0.1
v -1.6 2.4 0.3
v -1.6 2.4 0.2
v -1.6 2.5 0.5
v -1.6 2.5 0.3
v -1.6 2.6 0.7
v -1.6 2.6 0.5
v -1.6 2.6 -0.5
v -1.6 2.7 0.8
v -1.6 2.7 -0.6
v -1.1 0.7 -0.6
v -1.1 0.7 -0.7
v -1.1 0.9 -0.6
v -1.1 0.9 -0.7
v -1 0.6 -0.6
v -1 0.6 -0.7
v -1 0.7 -0.6
v -1 0.7 -0.7
v -1 0.9 -0.6
v -1 0.9 -0.7
v -1 1 -0.6
v -1 1 -0.7
v -0.7 0.1 -0.2
v -0.7 0.1 -0.5
v -0.7 0.1 -0.6
v -0.7 0.5 -0.2
v -0.7 0.5 -0.5
v -0.7 0.5 -0.6
v -0.5 2.4 -0.6
v -0.5 2.4 -0.8
v -0.5 2.6 -0.6
v -0.5 2.7 -0.6
v -0.5 2.8 -0.6
v -0.5 2.8 -0.8
v -0.2 2.1 -0.6
v -0.2 2.1 -0.8
v -0.2 2.4 -0.6
v -0.2 2.4 -0.8
v -0.2 2.8 -0.6
v -0.2 2.8 -0.8
v -0.2 3.1 -0.6
v -0.2 3.1 -0.8
v 0.2 0.1 0.8
v 0.2 0.1 -0.6
v 0.2 1.3 0.4
v 0.2 1.3 -0.1
v 0.2 1.8 0.4
v 0.2 1.8 -0.1
v 0.2 2.1 -0.6
v 0.2 2.7 0.8
v 0.2 2.7 -0.6
v 0.7 0.7 -0.6
v 0.7 0.7 -0.7
v 0.7 0.9 -0.6
v 0.7 0.9 -0.7
v 0.8 0.6 -0.6
v 0.8 0.6 -0.7
v 0.8 0.7 -0.6
v 0.8 0.7 -0.7
v 0.8 0.9 -0.6
v 0.8 0.9 -0.7
v 0.8 1 -0.6
v 0.8 1 -0.7
v 1.1 0.1 -0.2
v 1.1 0.1 -0.5
v 1.1 0.1 -0.6
v 1.1 0.5 -0.2
v 1.1 0.5 -0.5
v 1.1 0.5 -0.6
v -1.1 0.1 -0.2
v -1.1 0.1 -0.5
v -1.1 0.1 -0.6
v -1.1 0.5 -0.2
v -1.1 0.5 -0.5
v -1.1 0.5 -0.6
v -0.8 0.6 -0.6
v -0.8 0.6 -0.7
v -0.8 0.7 -0.6
v -0.8 0.7 -0.7
v -0.8 0.9 -0.6
v -0.8 0.9 -0.7
v -0.8 1 -0.6
v -0.8 1 -0.7
v -0.7 0.7 -0.6
v -0.7 0.7 -0.7
v -0.7 0.9 -0.6
v -0.7 0.9 -0.7
v -0.2 0.1 0.8
v -0.2 0.1 -0.6
v -0.2 1.3 0.4
v -0.2 1.3 -0.1
v -0.2 1.8 0.4
v -0.2 1.8 -0.1
v -0.2 2.1 -0.6
v -0.2 2.7 0.8
v -0.2 2.7 -0.6
v 0.2 2.1 -0.6
v 0.2 2.1 -0.8
v 0.2 2.4 -0.6
v 0.2 2.4 -0.8
v 0.2 2.8 -0.6
v 0.2 2.8 -0.8
v 0.2 3.1 -0.6
v 0.2 3.1 -0.8
v 0.5 2.4 -0.6
v 0.5 2.4 -0.8
v 0.5 2.5 -0.6
v 0.5 2.6 -0.6
v 0.5 2.7 -0.6
v 0.5 2.8 -0.6
v 0.5 2.8 -0.8
v 0.7 0.1 -0.2
v 0.7 0.1 -0.5
v 0.7 0.1 -0.6
v 0.7 0.5 -0.2
v 0.7 0.5 -0.5
v 0.7 0.5 -0.6
v 1 0.6 -0.6
v 1 0.6 -0.7
v 1 0.7 -0.6
v 1 0.7 -0.7
v 1 0.9 -0.6
v 1 0.9 -0.7
v 1 1 -0.6
v 1 1 -0.7
v 1.1 0.7 -0.6
v 1.1 0.7 -0.7
v 1.1 0.9 -0.6
v 1.1 0.9 -0.7
v 1.6 0 1.6
v 1.6 0 -1.6
v 1.6 0.1 1.6
v 1.6 0.1 0.8
v 1.6 0.1 0.7
v 1.6 0.1 -0.5
v 1.6 0.1 -0.6
v 1.6 0.1 -1.6
v 1.6 1.1 0.7
v 1.6 1.1 0.6
v 1.6 1.5 0.6
v 1.6 1.5 0.5
v 1.6 1.8 0.5
v 1.6 1.8 0.4
v 1.6 2 0.4
v 1.6 2 0.3
v 1.6 2.1 0.3
v 1.6 2.1 0.2
v 1.6 2.2 0.2
v 1.6 2.2 0.1
v 1.6 2.3 0.1
v 1.6 2.3 0
v 1.6 2.4 0
v 1.6 2.4 -0.2
v 1.6 2.5 -0.2
v 1.6 2.5 -0.4
v 1.6 2.6 0.7
v 1.6 2.6 -0.4
v 1.6 2.6 -0.5
v 1.6 2.7 0.8
v 1.6 2.7 -0.6
v -1.6 0 1.6
v -1.6 0.1 1.6
v 1.6 0 1.6
v 1.6 0.1 1.6
v -1.6 0.1 0.8
v -1.6 2.7 0.8
v -1.5 0.1 0.8
v -1.5 1.2 0.8
v -1.5 2.6 0.8
v -1.4 1.2 0.8
v -1.4 1.4 0.8
v -1.3 1.4 0.8
v -1.3 1.7 0.8
v -1.2 1.7 0.8
v -1.2 1.8 0.8
v -1.1 1.8 0.8
v -1.1 2 0.8
v -1 2 0.8
v -1 2.1 0.8
v -0.9 2.1 0.8
v -0.9 2.3 0.8
v -0.8 2.3 0.8
v -0.8 2.4 0.8
v -0.6 2.4 0.8
v -0.6 2.5 0.8
v -0.5 2.5 0.8
v -0.5 2.6 0.8
v -0.3 0.1 0.8
v -0.3 2.6 0.8
v -0.2 0.1 0.8
v -0.2 2.7 0.8
v 0.2 0.1 0.8
v 0.2 2.7 0.8
v 0.3 0.1 0.8
v 0.3 0.9 0.8
v 0.3 2.6 0.8
v 0.4 0.9 0.8
v 0.4 1.3 0.8
v 0.5 1.3 0.8
v 0.5 1.6 0.8
v 0.6 1.6 0.8
v 0.6 1.9 0.8
v 0.7 1.9 0.8
v 0.7 2 0.8
v 0.8 2 0.8
v 0.8 2.2 0.8
v 0.9 2.2 0.8
v 0.9 2.3 0.8
v 1 2.3 0.8
v 1 2.4 0.8
v 1.1 2.4 0.8
v 1.1 2.5 0.8
v 1.2 2.5 0.8
v 1.2 2.6 0.8
v 1.5 0.1 0.8
v 1.5 2.6 0.8
v 1.6 0.1 0.8
v 1.6 2.7 0.8
v -0.2 1.3 0.4
v -0.2 1.8 0.4
v 0.2 1.3 0.4
v 0.2 1.8 0.4
v -0.5 2.7 -0.6
v -0.5 2.8 -0.6
v -0.2 2.1 -0.6
v -0.2 2.7 -0.6
v -0.2 2.8 -0.6
v -0.2 3.1 -0.6
v 0.2 2.1 -0.6
v 0.2 2.7 -0.6
v 0.2 2.8 -0.6
v 0.2 3.1 -0.6
v 0.5 2.7 -0.6
v 0.5 2.8 -0.6
v -0.2 1.3 -0.1
v -0.2 1.8 -0.1
v 0.2 1.3 -0.1
v 0.2 1.8 -0.1
v -1.1 0.1 -0.2
v -1.1 0.5 -0.2
v -0.7 0.1 -0.2
v -0.7 0.5 -0.2
v 0.7 0.1 -0.2
v 0.7 0.5 -0.2
v 1.1 0.1 -0.2
v 1.1 0.5 -0.2
v -1.6 0.1 -0.6
v -1.6 2.7 -0.6
v -1.5 0.1 -0.6
v -1.5 2.6 -0.6
v -1.3 2.5 -0.6
v -1.3 2.6 -0.6
v -1.1 0.1 -0.6
v -1.1 0.5 -0.6
v -1.1 0.7 -0.6
v -1.1 0.9 -0.6
v -1.1 2.4 -0.6
v -1.1 2.5 -0.6
v -1 0.6 -0.6
v -1 0.7 -0.6
v -1 0.9 -0.6
v -1 1 -0.6
v -1 2.3 -0.6
v -1 2.4 -0.6
v -0.9 2.2 -0.6
v -0.9 2.3 -0.6
v -0.8 0.6 -0.6
v -0.8 0.7 -0.6
v -0.8 0.9 -0.6
v -0.8 1 -0.6
v -0.8 2.1 -0.6
v -0.8 2.2 -0.6
v -0.7 0.1 -0.6
v -0.7 0.5 -0.6
v -0.7 0.7 -0.6
v -0.7 0.9 -0.6
v -0.7 1.9 -0.6
v -0.7 2.1 -0.6
v -0.6 1.6 -0.6
v -0.6 1.9 -0.6
v -0.5 1.4 -0.6
v -0.5 1.6 -0.6
v -0.5 2.4 -0.6
v -0.5 2.6 -0.6
v -0.5 2.7 -0.6
v -0.4 1 -0.6
v -0.4 1.4 -0.6
v -0.3 0.1 -0.6
v -0.3 1 -0.6
v -0.3 2.4 -0.6
v -0.2 0.1 -0.6
v -0.2 2.1 -0.6
v -0.2 2.4 -0.6
v 0.2 0.1 -0.6
v 0.2 2.1 -0.6
v 0.2 2.4 -0.6
v 0.3 0.1 -0.6
v 0.3 2.4 -0.6
v 0.5 2.4 -0.6
v 0.5 2.5 -0.6
v 0.5 2.6 -0.6
v 0.5 2.7 -0.6
v 0.7 0.1 -0.6
v 0.7 0.5 -0.6
v 0.7 0.7 -0.6
v 0.7 0.9 -0.6
v 0.7 2.4 -0.6
v 0.7 2.5 -0.6
v 0.8 0.6 -0.6
v 0.8 0.7 -0.6
v 0.8 0.9 -0.6
v 0.8 1 -0.6
v 0.8 2.3 -0.6
v 0.8 2.4 -0.6
v 0.9 2.2 -0.6
v 0.9 2.3 -0.6
v 1 0.6 -0.6
v 1 0.7 -0.6
v 1 0.9 -0.6
v 1 1 -0.6
v 1 2.1 -0.6
v 1 2.2 -0.6
v 1.1 0.1 -0.6
v 1.1 0.5 -0.6
v 1.1 0.7 -0.6
v 1.1 0.9 -0.6
v 1.1 1.9 -0.6
v 1.1 2.1 -0.6
v 1.2 1.6 -0.6
v 1.2 1.9 -0.6
v 1.3 1.4 -0.6
v 1.3 1.6 -0.6
v 1.4 0.9 -0.6
v 1.4 1.4 -0.6
v 1.5 0.1 -0.6
v 1.5 0.9 -0.6
v 1.5 2.6 -0.6
v 1.6 0.1 -0.6
v 1.6 2.7 -0.6
v -1.1 0.7 -0.7
v -1.1 0.9 -0.7
v -1 0.6 -0.7
v -1 0.7 -0.7
v -1 0.9 -0.7
v -1 1 -0.7
v -0.8 0.6 -0.7
v -0.8 0.7 -0.7
v -0.8 0.9 -0.7
v -0.8 1 -0.7
v -0.7 0.7 -0.7
v -0.7 0.9 -0.7
v 0.7 0.7 -0.7
v 0.7 0.9 -0.7
v 0.8 0.6 -0.7
v 0.8 0.7 -0.7
v 0.8 0.9 -0.7
v 0.8 1 -0.7
v 1 0.6 -0.7
v 1 0.7 -0.7
v 1 0.9 -0.7
v 1 1 -0.7
v 1.1 0.7 -0.7
v 1.1 0.9 -0.7
v -0.5 2.4 -0.8
v -0.5 2.8 -0.8
v -0.2 2.1 -0.8
v -0.2 2.4 -0.8
v -0.2 2.8 -0.8
v -0.2 3.1 -0.8
v 0.2 2.1 -0.8
v 0.2 2.4 -0.8
v 0.2 2.8 -0.8
v 0.2 3.1 -0.8
v 0.5 2.4 -0.8
v 0.5 2.8 -0.8
v -1.6 0 -1.6
v -1.6 0.1 -1.6
v 1.6 0 -1.6
v 1.6 0.1 -1.6
v -1.6 0 1.6
v 1.6 0 1.6
v -1.1 0 -0.2
v -0.7 0 -0.2
v 0.7 0 -0.2
v 1.1 0 -0.2
v -1.1 0 -0.5
v -0.7 0 -0.5
v 0.7 0 -0.5
v 1.1 0 -0.5
v -1.1 0 -0.6
v -0.7 0 -0.6
v 0.7 0 -0.6
v 1.1 0 -0.6
v -1.6 0 -1.6
v 1.6 0 -1.6
v -1.1 0.5 -0.2
v -0.7 0.5 -0.2
v 0.7 0.5 -0.2
v 1.1 0.5 -0.2
v -1.1 0.5 -0.5
v -0.7 0.5 -0.5
v 0.7 0.5 -0.5
v 1.1 0.5 -0.5
v -1.1 0.5 -0.6
v -0.7 0.5 -0.6
v 0.7 0.5 -0.6
v 1.1 0.5 -0.6
v -1 0.6 -0.6
v -0.8 0.6 -0.6
v 0.8 0.6 -0.6
v 1 0.6 -0.6
v -1 0.6 -0.7
v -0.8 0.6 -0.7
v 0.8 0.6 -0.7
v 1 0.6 -0.7
v -1.1 0.7 -0.6
v -1 0.7 -0.6
v -0.8 0.7 -0.6
v -0.7 0.7 -0.6
v 0.7 0.7 -0.6
v 0.8 0.7 -0.6
v 1 0.7 -0.6
v 1.1 0.7 -0.6
v -1.1 0.7 -0.7
v -1 0.7 -0.7
v -0.8 0.7 -0.7
v -0.7 0.7 -0.7
v 0.7 0.7 -0.7
v 0.8 0.7 -0.7
v 1 0.7 -0.7
v 1.1 0.7 -0.7
v -0.2 1.3 0.4
v 0.2 1.3 0.4
v -0.2 1.3 -0.1
v 0.2 1.3 -0.1
v -0.2 2.1 -0.6
v 0.2 2.1 -0.6
v -0.2 2.1 -0.8
v 0.2 2.1 -0.8
v -0.5 2.4 -0.6
v -0.3 2.4 -0.6
v -0.2 2.4 -0.6
v 0.2 2.4 -0.6
v 0.3 2.4 -0.6
v 0.5 2.4 -0.6
v -0.5 2.4 -0.8
v -0.2 2.4 -0.8
v 0.2 2.4 -0.8
v 0.5 2.4 -0.8
v -1.6 0.1 1.6
v 1.6 0.1 1.6
v -1.6 0.1 0.8
v -1.5 0.1 0.8
v -0.3 0.1 0.8
v -0.2 0.1 0.8
v 0.2 0.1 0.8
v 0.3 0.1 0.8
v 1.5 0.1 0.8
v 1.6 0.1 0.8
v -1.1 0.1 -0.2
v -0.7 0.1 -0.2
v 0.7 0.1 -0.2
v 1.1 0.1 -0.2
v -1.1 0.1 -0.5
v -0.7 0.1 -0.5
v 0.7 0.1 -0.5
v 1.1 0.1 -0.5
v -1.6 0.1 -0.6
v -1.5 0.1 -0.6
v -1.1 0.1 -0.6
v -0.7 0.1 -0.6
v -0.3 0.1 -0.6
v -0.2 0.1 -0.6
v 0.2 0.1 -0.6
v 0.3 0.1 -0.6
v 0.7 0.1 -0.6
v 1.1 0.1 -0.6
v 1.5 0.1 -0.6
v 1.6 0.1 -0.6
v -1.6 0.1 -1.6
v 1.6 0.1 -1.6
v -1.1 0.9 -0.6
v -1 0.9 -0.6
v -0.8 0.9 -0.6
v -0.7 0.9 -0.6
v 0.7 0.9 -0.6
v 0.8 0.9 -0.6
v 1 0.9 -0.6
v 1.1 0.9 -0.6
v -1.1 0.9 -0.7
v -1 0.9 -0.7
v -0.8 0.9 -0.7
v -0.7 0.9 -0.7
v 0.7 0.9 -0.7
v 0.8 0.9 -0.7
v 1 0.9 -0.7
v 1.1 0.9 -0.7
v -1 1 -0.6
v -0.8 1 -0.6
v 0.8 1 -0.6
v 1 1 -0.6
v -1 1 -0.7
v -0.8 1 -0.7
v 0.8 1 -0.7
v 1 1 -0.7
v -0.2 1.8 0.4
v 0.2 1.8 0.4
v -0.2 1.8 -0.1
v 0.2 1.8 -0.1
v -1.6 2.7 0.8
v -0.2 2.7 0.8
v 0.2 2.7 0.8
v 1.6 2.7 0.8
v -1.6 2.7 -0.6
v -0.5 2.7 -0.6
v -0.2 2.7 -0.6
v 0.2 2.7 -0.6
v 0.5 2.7 -0.6
v 1.6 2.7 -0.6
v -0.5 2.8 -0.6
v -0.2 2.8 -0.6
v 0.2 2.8 -0.6
v 0.5 2.8 -0.6
v -0.5 2.8 -0.8
v -0.2 2.8 -0.8
v 0.2 2.8 -0.8
v 0.5 2.8 -0.8
v -0.2 3.1 -0.6
v 0.2 3.1 -0.6
v -0.2 3.1 -0.8
v 0.2 3.1 -0.8

# faces
f 3/4/1 2/4/1 1/4/1
f 4/4/1 2/4/1 3/4/1
f 5/4/1 2/4/1 4/4/1
f 6/4/1 2/4/1 5/4/1
f 7/4/1 2/4/1 6/4/1
f 8/4/1 2/4/1 7/4/1
f 9/3/1 6/3/1 5/3/1
f 10/1/1 7/1/1 6/1/1
f 10/3/1 6/3/1 9/3/1
f 11/3/1 9/3/1 5/3/1
f 12/2/1 10/2/1 9/2/1
f 12/3/1 9/3/1 11/3/1
f 13/3/1 11/3/1 5/3/1
f 14/2/1 12/2/1 11/2/1
f 14/3/1 11/3/1 13/3/1
f 15/3/1 13/3/1 5/3/1
f 16/2/1 14/2/1 13/2/1
f 16/3/1 13/3/1 15/3/1
f 17/3/1 15/3/1 5/3/1
f 18/2/1 16/2/1 15/2/1
f 18/3/1 15/3/1 17/3/1
f 19/3/1 17/3/1 5/3/1
f 20/2/1 18/2/1 17/2/1
f 20/3/1 17/3/1 19/3/1
f 21/3/1 19/3/1 5/3/1
f 22/2/1 20/2/1 19/2/1
f 22/3/1 19/3/1 21/3/1
f 23/3/1 21/3/1 5/3/1
f 24/2/1 22/2/1 21/2/1
f 24/3/1 21/3/1 23/3/1
f 25/3/1 23/3/1 5/3/1
f 26/2/1 24/2/1 23/2/1
f 26/3/1 23/3/1 25/3/1
f 27/1/1 5/1/1 4/1/1
f 27/3/1 25/3/1 5/3/1
f 28/2/1 26/2/1 25/2/1
f 28/3/1 25/3/1 27/3/1
f 29/2/1 24/2/1 26/2/1
f 29/2/1 26/2/1 28/2/1
f 29/1/1 7/1/1 10/1/1
f 29/2/1 10/2/1 12/2/1
f 29/2/1 22/2/1 24/2/1
f 29/2/1 20/2/1 22/2/1
f 29/2/1 18/2/1 20/2/1
f 29/2/1 16/2/1 18/2/1
f 29/2/1 14/2/1 16/2/1
f 29/2/1 12/2/1 14/2/1
f 30/1/1 28/1/1 27/1/1
f 30/1/1 27/1/1 4/1/1
f 30/1/1 29/1/1 28/1/1
f 31/1/1 7/1/1 29/1/1
f 31/1/1 29/1/1 30/1/1
f 34/7/1 33/7/1 32/7/1
f 35/7/1 33/7/1 34/7/1
f 38/7/1 37/7/1 36/7/1
f 39/7/1 37/7/1 38/7/1
f 42/7/1 41/7/1 40/7/1
f 43/7/1 41/7/1 42/7/1
f 47/8/1 45/8/1 44/8/1
f 48/3/1 46/3/1 45/3/1
f 48/8/1 45/8/1 47/8/1
f 49/3/1 46/3/1 48/3/1
f 52/6/1 51/6/1 50/6/1
f 53/6/1 51/6/1 52/6/1
f 54/6/1 51/6/1 53/6/1
f 55/6/1 51/6/1 54/6/1
f 58/6/1 57/6/1 56/6/1
f 59/6/1 57/6/1 58/6/1
f 62/6/1 61/6/1 60/6/1
f 63/6/1 61/6/1 62/6/1
f 66/1/1 65/1/1 64/1/1
f 67/1/1 65/1/1 66/1/1
f 68/1/1 66/1/1 64/1/1
f 69/1/1 65/1/1 67/1/1
f 70/1/1 65/1/1 69/1/1
f 70/1/1 69/1/1 68/1/1
f 71/1/1 68/1/1 64/1/1
f 71/1/1 70/1/1 68/1/1
f 72/1/1 70/1/1 71/1/1
f 75/5/1 74/5/1 73/5/1
f 76/5/1 74/5/1 75/5/1
f 79/5/1 78/5/1 77/5/1
f 80/5/1 78/5/1 79/5/1
f 83/5/1 82/5/1 81/5/1
f 84/5/1 82/5/1 83/5/1
f 88/8/1 86/8/1 85/8/1
f 89/3/1 87/3/1 86/3/1
f 89/8/1 86/8/1 88/8/1
f 90/3/1 87/3/1 89/3/1
f 91/8/2 92/8/2 94/8/2
f 92/3/2 93/3/2 95/3/2
f 94/8/2 92/8/2 95/8/2
f 95/3/2 93/3/2 96/3/2
f 97/7/2 98/7/2 99/7/2
f 99/7/2 98/7/2 100/7/2
f 101/7/2 102/7/2 103/7/2
f 103/7/2 102/7/2 104/7/2
f 105/7/2 106/7/2 107/7/2
f 107/7/2 106/7/2 108/7/2
f 109/1/2 110/1/2 111/1/2
f 111/1/2 110/1/2 112/1/2
f 109/1/2 111/1/2 113/1/2
f 112/1/2 110/1/2 114/1/2
f 114/1/2 110/1/2 115/1/2
f 113/1/2 114/1/2 115/1/2
f 109/1/2 113/1/2 116/1/2
f 113/1/2 115/1/2 116/1/2
f 116/1/2 115/1/2 117/1/2
f 118/6/2 119/6/2 120/6/2
f 120/6/2 119/6/2 121/6/2
f 122/6/2 123/6/2 124/6/2
f 124/6/2 123/6/2 125/6/2
f 126/6/2 127/6/2 128/6/2
f 128/6/2 127/6/2 129/6/2
f 129/6/2 127/6/2 130/6/2
f 130/6/2 127/6/2 131/6/2
f 131/6/2 127/6/2 132/6/2
f 133/8/2 134/8/2 136/8/2
f 134/3/2 135/3/2 137/3/2
f 136/8/2 134/8/2 137/8/2
f 137/3/2 135/3/2 138/3/2
f 139/5/2 140/5/2 141/5/2
f 141/5/2 140/5/2 142/5/2
f 143/5/2 144/5/2 145/5/2
f 145/5/2 144/5/2 146/5/2
f 147/5/2 148/5/2 149/5/2
f 149/5/2 148/5/2 150/5/2
f 151/4/2 152/4/2 153/4/2
f 153/4/2 152/4/2 154/4/2
f 154/4/2 152/4/2 155/4/2
f 155/4/2 152/4/2 156/4/2
f 156/4/2 152/4/2 157/4/2
f 157/4/2 152/4/2 158/4/2
f 154/1/2 155/1/2 159/1/2
f 155/3/2 156/3/2 159/3/2
f 159/3/2 156/3/2 160/3/2
f 159/2/2 160/2/2 161/2/2
f 160/3/2 156/3/2 161/3/2
f 161/3/2 156/3/2 162/3/2
f 161/2/2 162/2/2 163/2/2
f 162/3/2 156/3/2 163/3/2
f 163/3/2 156/3/2 164/3/2
f 163/2/2 164/2/2 165/2/2
f 164/3/2 156/3/2 165/3/2
f 165/3/2 156/3/2 166/3/2
f 165/2/2 166/2/2 167/2/2
f 166/3/2 156/3/2 167/3/2
f 167/3/2 156/3/2 168/3/2
f 167/2/2 168/2/2 169/2/2
f 168/3/2 156/3/2 169/3/2
f 169/3/2 156/3/2 170/3/2
f 169/2/2 170/2/2 171/2/2
f 170/3/2 156/3/2 171/3/2
f 171/3/2 156/3/2 172/3/2
f 171/2/2 172/2/2 173/2/2
f 172/3/2 156/3/2 173/3/2
f 173/3/2 156/3/2 174/3/2
f 173/2/2 174/2/2 175/2/2
f 174/3/2 156/3/2 175/3/2
f 175/3/2 156/3/2 176/3/2
f 154/1/2 159/1/2 177/1/2
f 159/2/2 161/2/2 177/2/2
f 175/2/2 176/2/2 177/2/2
f 173/2/2 175/2/2 177/2/2
f 171/2/2 173/2/2 177/2/2
f 169/2/2 171/2/2 177/2/2
f 167/2/2 169/2/2 177/2/2
f 165/2/2 167/2/2 177/2/2
f 163/2/2 165/2/2 177/2/2
f 161/2/2 163/2/2 177/2/2
f 176/3/2 156/3/2 178/3/2
f 177/2/2 176/2/2 178/2/2
f 156/1/2 157/1/2 179/1/2
f 178/3/2 156/3/2 179/3/2
f 177/1/2 178/1/2 180/1/2
f 154/1/2 177/1/2 180/1/2
f 178/1/2 179/1/2 180/1/2
f 179/1/2 157/1/2 181/1/2
f 180/1/2 179/1/2 181/1/2
f 184/4/3 183/4/3 182/4/3
f 185/4/3 183/4/3 184/4/3
f 188/1/3 187/1/3 186/1/3
f 189/1/3 187/1/3 188/1/3
f 190/1/3 187/1/3 189/1/3
f 191/3/3 189/3/3 188/3/3
f 191/2/3 190/2/3 189/2/3
f 192/2/3 190/2/3 191/2/3
f 193/3/3 192/3/3 191/3/3
f 193/2/3 190/2/3 192/2/3
f 194/2/3 190/2/3 193/2/3
f 195/3/3 194/3/3 193/3/3
f 195/2/3 190/2/3 194/2/3
f 196/2/3 190/2/3 195/2/3
f 197/3/3 196/3/3 195/3/3
f 197/2/3 190/2/3 196/2/3
f 198/2/3 190/2/3 197/2/3
f 199/3/3 198/3/3 197/3/3
f 199/2/3 190/2/3 198/2/3
f 200/2/3 190/2/3 199/2/3
f 201/3/3 200/3/3 199/3/3
f 201/2/3 190/2/3 200/2/3
f 202/2/3 190/2/3 201/2/3
f 203/3/3 202/3/3 201/3/3
f 203/2/3 190/2/3 202/2/3
f 204/2/3 190/2/3 203/2/3
f 205/3/3 204/3/3 203/3/3
f 205/2/3 190/2/3 204/2/3
f 206/2/3 190/2/3 205/2/3
f 207/3/3 206/3/3 205/3/3
f 207/2/3 190/2/3 206/2/3
f 208/1/3 187/1/3 190/1/3
f 208/2/3 190/2/3 207/2/3
f 209/3/3 207/3/3 205/3/3
f 209/3/3 191/3/3 188/3/3
f 209/3/3 208/3/3 207/3/3
f 209/3/3 205/3/3 203/3/3
f 209/3/3 203/3/3 201/3/3
f 209/3/3 201/3/3 199/3/3
f 209/3/3 199/3/3 197/3/3
f 209/3/3 197/3/3 195/3/3
f 209/3/3 195/3/3 193/3/3
f 209/3/3 193/3/3 191/3/3
f 210/1/3 187/1/3 208/1/3
f 210/3/3 208/3/3 209/3/3
f 211/1/3 210/1/3 209/1/3
f 212/1/3 187/1/3 210/1/3
f 212/1/3 210/1/3 211/1/3
f 215/1/3 214/1/3 213/1/3
f 216/1/3 214/1/3 215/1/3
f 217/1/3 214/1/3 216/1/3
f 218/3/3 216/3/3 215/3/3
f 218/2/3 217/2/3 216/2/3
f 219/2/3 217/2/3 218/2/3
f 220/3/3 219/3/3 218/3/3
f 220/2/3 217/2/3 219/2/3
f 221/2/3 217/2/3 220/2/3
f 222/3/3 221/3/3 220/3/3
f 222/2/3 217/2/3 221/2/3
f 223/2/3 217/2/3 222/2/3
f 224/3/3 223/3/3 222/3/3
f 224/2/3 217/2/3 223/2/3
f 225/2/3 217/2/3 224/2/3
f 226/3/3 225/3/3 224/3/3
f 226/2/3 217/2/3 225/2/3
f 227/2/3 217/2/3 226/2/3
f 228/3/3 227/3/3 226/3/3
f 228/2/3 217/2/3 227/2/3
f 229/2/3 217/2/3 228/2/3
f 230/3/3 229/3/3 228/3/3
f 230/2/3 217/2/3 229/2/3
f 231/2/3 217/2/3 230/2/3
f 232/3/3 231/3/3 230/3/3
f 232/2/3 217/2/3 231/2/3
f 233/2/3 217/2/3 232/2/3
f 234/3/3 233/3/3 232/3/3
f 234/2/3 217/2/3 233/2/3
f 235/1/3 214/1/3 217/1/3
f 235/2/3 217/2/3 234/2/3
f 236/3/3 234/3/3 232/3/3
f 236/3/3 218/3/3 215/3/3
f 236/3/3 235/3/3 234/3/3
f 236/3/3 232/3/3 230/3/3
f 236/3/3 230/3/3 228/3/3
f 236/3/3 228/3/3 226/3/3
f 236/3/3 226/3/3 224/3/3
f 236/3/3 224/3/3 222/3/3
f 236/3/3 222/3/3 220/3/3
f 236/3/3 220/3/3 218/3/3
f 237/1/3 214/1/3 235/1/3
f 237/3/3 235/3/3 236/3/3
f 238/1/3 237/1/3 236/1/3
f 239/1/3 214/1/3 237/1/3
f 239/1/3 237/1/3 238/1/3
f 242/1/3 241/1/3 240/1/3
f 243/1/3 241/1/3 242/1/3
f 247/6/3 245/6/3 244/6/3
f 248/6/3 245/6/3 247/6/3
f 250/6/3 247/6/3 246/6/3
f 250/6/3 249/6/3 248/6/3
f 250/6/3 248/6/3 247/6/3
f 251/6/3 249/6/3 250/6/3
f 252/6/3 249/6/3 251/6/3
f 253/6/3 249/6/3 252/6/3
f 254/6/3 252/6/3 251/6/3
f 255/6/3 252/6/3 254/6/3
f 256/1/4 257/1/4 258/1/4
f 258/1/4 257/1/4 259/1/4
f 260/8/4 261/8/4 262/8/4
f 262/8/4 261/8/4 263/8/4
f 264/8/4 265/8/4 266/8/4
f 266/8/4 265/8/4 267/8/4
f 268/1/4 269/1/4 270/1/4
f 270/1/4 269/1/4 271/1/4
f 270/3/4 271/3/4 272/3/4
f 271/1/4 269/1/4 273/1/4
f 272/3/4 271/3/4 273/3/4
f 270/3/4 272/3/4 274/3/4
f 274/3/4 272/3/4 275/3/4
f 275/3/4 272/3/4 276/3/4
f 276/3/4 272/3/4 277/3/4
f 277/3/4 272/3/4 278/3/4
f 272/2/4 273/2/4 279/2/4
f 278/3/4 272/3/4 279/3/4
f 275/3/4 276/3/4 280/3/4
f 280/3/4 276/3/4 281/3/4
f 277/3/4 278/3/4 282/3/4
f 282/3/4 278/3/4 283/3/4
f 283/3/4 278/3/4 284/3/4
f 278/2/4 279/2/4 285/2/4
f 284/3/4 278/3/4 285/3/4
f 283/3/4 284/3/4 286/3/4
f 284/2/4 285/2/4 287/2/4
f 286/3/4 284/3/4 287/3/4
f 275/3/4 280/3/4 288/3/4
f 283/3/4 286/3/4 291/3/4
f 291/3/4 286/3/4 292/3/4
f 286/2/4 287/2/4 293/2/4
f 292/3/4 286/3/4 293/3/4
f 288/3/4 289/3/4 295/3/4
f 275/3/4 288/3/4 295/3/4
f 295/3/4 289/3/4 296/3/4
f 291/3/4 292/3/4 297/3/4
f 290/3/4 291/3/4 297/3/4
f 297/3/4 292/3/4 298/3/4
f 292/2/4 293/2/4 299/2/4
f 298/3/4 292/3/4 299/3/4
f 295/3/4 296/3/4 300/3/4
f 297/3/4 298/3/4 300/3/4
f 294/3/4 295/3/4 300/3/4
f 296/3/4 297/3/4 300/3/4
f 298/2/4 299/2/4 301/2/4
f 300/3/4 298/3/4 301/3/4
f 294/3/4 300/3/4 302/3/4
f 300/2/4 301/2/4 303/2/4
f 302/3/4 300/3/4 303/3/4
f 285/2/4 279/2/4 304/2/4
f 303/2/4 301/2/4 304/2/4
f 293/2/4 287/2/4 304/2/4
f 287/2/4 285/2/4 304/2/4
f 299/2/4 293/2/4 304/2/4
f 301/2/4 299/2/4 304/2/4
f 273/1/4 269/1/4 305/1/4
f 304/2/4 279/2/4 305/2/4
f 279/2/4 273/2/4 305/2/4
f 305/1/4 269/1/4 306/1/4
f 294/3/4 302/3/4 307/3/4
f 303/2/4 304/2/4 308/2/4
f 307/3/4 302/3/4 308/3/4
f 302/2/4 303/2/4 308/2/4
f 294/3/4 307/3/4 309/3/4
f 307/2/4 308/2/4 310/2/4
f 309/3/4 307/3/4 310/3/4
f 308/2/4 304/2/4 311/2/4
f 310/2/4 308/2/4 311/2/4
f 309/1/4 310/1/4 312/1/4
f 310/1/4 311/1/4 312/1/4
f 312/1/4 311/1/4 313/1/4
f 313/1/4 311/1/4 314/1/4
f 315/1/4 316/1/4 318/1/4
f 316/1/4 317/1/4 318/1/4
f 318/1/4 317/1/4 319/1/4
f 318/3/4 319/3/4 320/3/4
f 318/3/4 320/3/4 324/3/4
f 320/3/4 321/3/4 324/3/4
f 324/3/4 321/3/4 325/3/4
f 325/3/4 321/3/4 326/3/4
f 326/3/4 321/3/4 327/3/4
f 327/3/4 321/3/4 328/3/4
f 321/2/4 322/2/4 329/2/4
f 328/3/4 321/3/4 329/3/4
f 325/3/4 326/3/4 330/3/4
f 330/3/4 326/3/4 331/3/4
f 327/3/4 328/3/4 332/3/4
f 332/3/4 328/3/4 333/3/4
f 333/3/4 328/3/4 334/3/4
f 328/2/4 329/2/4 335/2/4
f 334/3/4 328/3/4 335/3/4
f 333/3/4 334/3/4 336/3/4
f 334/2/4 335/2/4 337/2/4
f 336/3/4 334/3/4 337/3/4
f 325/3/4 330/3/4 338/3/4
f 333/3/4 336/3/4 341/3/4
f 341/3/4 336/3/4 342/3/4
f 336/2/4 337/2/4 343/2/4
f 342/3/4 336/3/4 343/3/4
f 338/3/4 339/3/4 345/3/4
f 325/3/4 338/3/4 345/3/4
f 345/3/4 339/3/4 346/3/4
f 341/3/4 342/3/4 347/3/4
f 340/3/4 341/3/4 347/3/4
f 347/3/4 342/3/4 348/3/4
f 342/2/4 343/2/4 349/2/4
f 348/3/4 342/3/4 349/3/4
f 345/3/4 346/3/4 350/3/4
f 347/3/4 348/3/4 350/3/4
f 344/3/4 345/3/4 350/3/4
f 346/3/4 347/3/4 350/3/4
f 348/2/4 349/2/4 351/2/4
f 350/3/4 348/3/4 351/3/4
f 344/3/4 350/3/4 352/3/4
f 350/2/4 351/2/4 353/2/4
f 352/3/4 350/3/4 353/3/4
f 344/3/4 352/3/4 354/3/4
f 352/2/4 353/2/4 355/2/4
f 354/3/4 352/3/4 355/3/4
f 344/3/4 354/3/4 356/3/4
f 354/2/4 355/2/4 357/2/4
f 356/3/4 354/3/4 357/3/4
f 322/1/4 323/1/4 358/1/4
f 357/2/4 355/2/4 358/2/4
f 335/2/4 329/2/4 358/2/4
f 329/2/4 322/2/4 358/2/4
f 355/2/4 353/2/4 358/2/4
f 353/2/4 351/2/4 358/2/4
f 343/2/4 337/2/4 358/2/4
f 337/2/4 335/2/4 358/2/4
f 349/2/4 343/2/4 358/2/4
f 351/2/4 349/2/4 358/2/4
f 356/1/4 357/1/4 359/1/4
f 357/1/4 358/1/4 359/1/4
f 358/1/4 323/1/4 360/1/4
f 359/1/4 358/1/4 360/1/4
f 361/7/4 362/7/4 364/7/4
f 364/7/4 362/7/4 365/7/4
f 363/7/4 364/7/4 367/7/4
f 365/7/4 366/7/4 367/7/4
f 364/7/4 365/7/4 367/7/4
f 367/7/4 366/7/4 368/7/4
f 368/7/4 366/7/4 369/7/4
f 369/7/4 366/7/4 370/7/4
f 368/7/4 369/7/4 371/7/4
f 371/7/4 369/7/4 372/7/4
f 373/5/4 374/5/4 376/5/4
f 376/5/4 374/5/4 377/5/4
f 376/5/4 377/5/4 379/5/4
f 377/5/4 378/5/4 379/5/4
f 375/5/4 376/5/4 379/5/4
f 379/5/4 378/5/4 380/5/4
f 380/5/4 378/5/4 381/5/4
f 381/5/4 378/5/4 382/5/4
f 380/5/4 381/5/4 383/5/4
f 383/5/4 381/5/4 384/5/4
f 385/6/4 386/6/4 388/6/4
f 388/6/4 386/6/4 389/6/4
f 387/6/4 388/6/4 391/6/4
f 389/6/4 390/6/4 391/6/4
f 388/6/4 389/6/4 391/6/4
f 391/6/4 390/6/4 392/6/4
f 392/6/4 390/6/4 393/6/4
f 393/6/4 390/6/4 394/6/4
f 392/6/4 393/6/4 395/6/4
f 395/6/4 393/6/4 396/6/4
f 397/4/4 398/4/4 399/4/4
f 399/4/4 398/4/4 400/4/4
f 403/4/5 402/4/5 401/4/5
f 404/4/5 402/4/5 403/4/5
f 405/4/5 402/4/5 404/4/5
f 406/4/5 402/4/5 405/4/5
f 407/4/5 403/4/5 401/4/5
f 407/8/5 404/8/5 403/8/5
f 408/4/5 405/4/5 404/4/5
f 408/8/5 404/8/5 407/8/5
f 409/8/5 406/8/5 405/8/5
f 409/4/5 405/4/5 408/4/5
f 410/4/5 402/4/5 406/4/5
f 410/8/5 406/8/5 409/8/5
f 411/1/5 408/1/5 407/1/5
f 411/4/5 407/4/5 401/4/5
f 412/4/5 409/4/5 408/4/5
f 412/1/5 408/1/5 411/1/5
f 413/1/5 410/1/5 409/1/5
f 413/4/5 409/4/5 412/4/5
f 414/4/5 402/4/5 410/4/5
f 414/1/5 410/1/5 413/1/5
f 415/4/5 411/4/5 401/4/5
f 415/4/5 413/4/5 412/4/5
f 415/4/5 414/4/5 413/4/5
f 415/4/5 412/4/5 411/4/5
f 416/4/5 402/4/5 414/4/5
f 416/4/5 414/4/5 415/4/5
f 421/8/5 418/8/5 417/8/5
f 422/8/5 418/8/5 421/8/5
f 423/8/5 420/8/5 419/8/5
f 424/8/5 420/8/5 423/8/5
f 425/3/5 422/3/5 421/3/5
f 426/3/5 422/3/5 425/3/5
f 427/3/5 424/3/5 423/3/5
f 428/3/5 424/3/5 427/3/5
f 433/7/5 430/7/5 429/7/5
f 434/7/5 430/7/5 433/7/5
f 435/5/5 432/5/5 431/5/5
f 436/5/5 432/5/5 435/5/5
f 445/7/5 438/7/5 437/7/5
f 446/7/5 438/7/5 445/7/5
f 447/7/5 440/7/5 439/7/5
f 448/7/5 440/7/5 447/7/5
f 449/5/5 442/5/5 441/5/5
f 450/5/5 442/5/5 449/5/5
f 451/5/5 444/5/5 443/5/5
f 452/5/5 444/5/5 451/5/5
f 455/1/5 454/1/5 453/1/5
f 456/1/5 454/1/5 455/1/5
f 459/6/5 458/6/5 457/6/5
f 460/6/5 458/6/5 459/6/5
f 467/6/5 462/6/5 461/6/5
f 467/6/5 463/6/5 462/6/5
f 468/6/5 463/6/5 467/6/5
f 469/6/5 466/6/5 465/6/5
f 469/6/5 465/6/5 464/6/5
f 470/6/5 466/6/5 469/6/5
f 471/4/6 472/4/6 473/4/6
f 473/4/6 472/4/6 474/4/6
f 474/4/6 472/4/6 475/4/6
f 475/4/6 472/4/6 476/4/6
f 476/4/6 472/4/6 477/4/6
f 477/4/6 472/4/6 478/4/6
f 478/4/6 472/4/6 479/4/6
f 479/4/6 472/4/6 480/4/6
f 481/8/6 482/8/6 485/8/6
f 485/8/6 482/8/6 486/8/6
f 483/8/6 484/8/6 487/8/6
f 487/8/6 484/8/6 488/8/6
f 485/1/6 486/1/6 491/1/6
f 491/1/6 486/1/6 492/1/6
f 476/4/6 477/4/6 494/4/6
f 494/4/6 477/4/6 495/4/6
f 487/1/6 488/1/6 497/1/6
f 497/1/6 488/1/6 498/1/6
f 492/4/6 493/4/6 501/4/6
f 499/4/6 500/4/6 501/4/6
f 498/4/6 499/4/6 501/4/6
f 496/4/6 497/4/6 501/4/6
f 489/4/6 490/4/6 501/4/6
f 494/4/6 495/4/6 501/4/6
f 493/4/6 494/4/6 501/4/6
f 495/4/6 496/4/6 501/4/6
f 491/4/6 492/4/6 501/4/6
f 490/4/6 491/4/6 501/4/6
f 497/4/6 498/4/6 501/4/6
f 501/4/6 500/4/6 502/4/6
f 503/7/6 504/7/6 511/7/6
f 511/7/6 504/7/6 512/7/6
f 505/7/6 506/7/6 513/7/6
f 513/7/6 506/7/6 514/7/6
f 507/5/6 508/5/6 515/5/6
f 515/5/6 508/5/6 516/5/6
f 509/5/6 510/5/6 517/5/6
f 517/5/6 510/5/6 518/5/6
f 519/7/6 520/7/6 523/7/6
f 523/7/6 520/7/6 524/7/6
f 521/5/6 522/5/6 525/5/6
f 525/5/6 522/5/6 526/5/6
f 527/1/6 528/1/6 529/1/6
f 529/1/6 528/1/6 530/1/6
f 531/1/6 532/1/6 535/1/6
f 535/1/6 532/1/6 536/1/6
f 536/1/6 532/1/6 537/1/6
f 533/1/6 534/1/6 538/1/6
f 538/1/6 534/1/6 539/1/6
f 539/1/6 534/1/6 540/1/6
f 541/6/6 542/6/6 545/6/6
f 545/6/6 542/6/6 546/6/6
f 543/6/6 544/6/6 547/6/6
f 547/6/6 544/6/6 548/6/6
f 549/6/6 550/6/6 551/6/6
f 551/6/6 550/6/6 552/6/6
