# MagicaVoxel @ Ephtracy

# group
o 

# material
mtllib PotatoCat.mtl
usemtl palette

# normals
vn -1 0 0
vn 1 0 0
vn 0 0 1
vn 0 0 -1
vn 0 -1 0
vn 0 1 0

# texcoords
vt 0.00195312 0.5
vt 0.0566406 0.5
vt 0.0683594 0.5
vt 0.369141 0.5
vt 0.958984 0.5
vt 0.986328 0.5
vt 0.994141 0.5

# verts
v -1 0.9 1.2
v -1 0.9 1.1
v -1 1 1.2
v -1 1 1.1
v -1 1.1 1.2
v -1 1.1 1.1
v -1 1.2 1.2
v -1 1.2 1.1
v -0.7 0 1.2
v -0.7 0 0.8
v -0.7 0 -0.7
v -0.7 0 -1.1
v -0.7 0.1 1.2
v -0.7 0.1 0.8
v -0.7 0.1 -0.7
v -0.7 0.1 -1.1
v -0.7 0.5 0.8
v -0.7 0.5 -0.3
v -0.7 0.5 -0.7
v -0.7 0.6 0.3
v -0.7 0.6 -0.3
v -0.7 0.7 0.8
v -0.7 0.7 0.3
v -0.7 0.9 1.2
v -0.7 0.9 1.1
v -0.7 1 1.2
v -0.7 1 1.1
v -0.7 1.1 1.2
v -0.7 1.1 1.1
v -0.7 1.2 1.2
v -0.7 1.2 1.1
v -0.7 1.8 0.9
v -0.7 1.8 -1.1
v -0.7 2.1 1.2
v -0.7 2.1 0.9
v -0.3 0.4 1.3
v -0.3 0.4 1.2
v -0.3 0.5 1.3
v -0.3 0.5 1.2
v -0.3 0.6 1.3
v -0.3 0.6 1.2
v -0.3 0.7 1.3
v -0.3 0.7 1.2
v -0.3 0.8 1.3
v -0.3 0.8 1.2
v -0.3 0.9 1.3
v -0.3 0.9 1.2
v -0.3 1.2 1.3
v -0.3 1.2 1.2
v -0.2 0.6 1.3
v -0.2 0.6 1.2
v -0.2 0.7 1.3
v -0.2 0.7 1.2
v -0.1 1 -1.1
v -0.1 1 -1.4
v -0.1 1.8 -1.1
v -0.1 1.9 -0.1
v -0.1 1.9 -1.1
v -0.1 2.2 -0.1
v -0.1 2.2 -1.4
v 0.1 0.5 1.3
v 0.1 0.5 1.2
v 0.1 0.6 1.3
v 0.1 0.6 1.2
v 0.1 0.8 1.3
v 0.1 0.8 1.2
v 0.1 0.9 1.3
v 0.1 0.9 1.2
v 0.1 1 1.3
v 0.1 1 1.2
v 0.2 0.4 1.3
v 0.2 0.4 1.2
v 0.2 0.5 1.3
v 0.2 0.5 1.2
v 0.4 0 1.2
v 0.4 0 0.8
v 0.4 0 -0.7
v 0.4 0 -1.1
v 0.4 0.1 1.2
v 0.4 0.1 0.8
v 0.4 0.1 -0.7
v 0.4 0.1 -1.1
v 0.4 0.4 1.2
v 0.4 0.5 1.2
v 0.4 0.5 0.9
v 0.4 0.5 0.8
v 0.4 0.5 -0.7
v 0.4 0.5 -0.9
v 0.4 0.5 -1.1
v 0.4 1.8 1.2
v 0.4 1.8 0.9
v 0.4 2.1 1.2
v 0.4 2.1 0.9
v -0.3 0 1.2
v -0.3 0 0.8
v -0.3 0 -0.7
v -0.3 0 -1.1
v -0.3 0.1 1.2
v -0.3 0.1 0.8
v -0.3 0.1 -0.7
v -0.3 0.1 -1.1
v -0.3 0.4 1.2
v -0.3 0.5 1.2
v -0.3 0.5 0.9
v -0.3 0.5 0.8
v -0.3 0.5 -0.7
v -0.3 0.5 -0.9
v -0.3 0.5 -1.1
v -0.3 1.8 1.2
v -0.3 1.8 0.9
v -0.3 2.1 1.2
v -0.3 2.1 0.9
v -0.1 0.4 1.3
v -0.1 0.4 1.2
v -0.1 0.5 1.3
v -0.1 0.5 1.2
v 0 0.5 1.3
v 0 0.5 1.2
v 0 0.6 1.3
v 0 0.6 1.2
v 0 0.8 1.3
v 0 0.8 1.2
v 0 0.9 1.3
v 0 0.9 1.2
v 0 1 1.3
v 0 1 1.2
v 0.2 1 -1.1
v 0.2 1 -1.4
v 0.2 1.8 -1.1
v 0.2 1.9 -0.1
v 0.2 1.9 -1.1
v 0.2 2.2 -0.1
v 0.2 2.2 -1.4
v 0.3 0.6 1.3
v 0.3 0.6 1.2
v 0.3 0.7 1.3
v 0.3 0.7 1.2
v 0.4 0.4 1.3
v 0.4 0.4 1.2
v 0.4 0.5 1.3
v 0.4 0.5 1.2
v 0.4 0.6 1.3
v 0.4 0.6 1.2
v 0.4 0.7 1.3
v 0.4 0.7 1.2
v 0.4 0.8 1.3
v 0.4 0.8 1.2
v 0.4 0.9 1.3
v 0.4 0.9 1.2
v 0.4 1.2 1.3
v 0.4 1.2 1.2
v 0.8 0 1.2
v 0.8 0 0.8
v 0.8 0 -0.7
v 0.8 0 -1.1
v 0.8 0.1 1.2
v 0.8 0.1 0.8
v 0.8 0.1 -0.7
v 0.8 0.1 -1.1
v 0.8 0.5 0.8
v 0.8 0.5 -0.3
v 0.8 0.5 -0.7
v 0.8 0.6 0.2
v 0.8 0.6 -0.3
v 0.8 0.7 0.8
v 0.8 0.7 0.2
v 0.8 0.9 1.2
v 0.8 0.9 1.1
v 0.8 1 1.2
v 0.8 1 1.1
v 0.8 1.1 1.2
v 0.8 1.1 1.1
v 0.8 1.2 1.2
v 0.8 1.2 1.1
v 0.8 1.8 0.9
v 0.8 1.8 -1.1
v 0.8 2.1 1.2
v 0.8 2.1 0.9
v 1.1 0.9 1.2
v 1.1 0.9 1.1
v 1.1 1 1.2
v 1.1 1 1.1
v 1.1 1.1 1.2
v 1.1 1.1 1.1
v 1.1 1.2 1.2
v 1.1 1.2 1.1
v -0.3 0.4 1.3
v -0.3 0.5 1.3
v -0.3 0.6 1.3
v -0.3 0.7 1.3
v -0.3 0.8 1.3
v -0.3 0.9 1.3
v -0.3 1.2 1.3
v -0.2 0.4 1.3
v -0.2 0.5 1.3
v -0.2 0.6 1.3
v -0.2 0.7 1.3
v -0.2 0.8 1.3
v -0.2 0.9 1.3
v -0.1 0.4 1.3
v -0.1 0.5 1.3
v -0.1 0.7 1.3
v -0.1 0.8 1.3
v -0.1 0.9 1.3
v -0.1 1.1 1.3
v -0.1 1.2 1.3
v 0 0.5 1.3
v 0 0.6 1.3
v 0 0.7 1.3
v 0 0.8 1.3
v 0 0.9 1.3
v 0 1 1.3
v 0.1 0.5 1.3
v 0.1 0.6 1.3
v 0.1 0.7 1.3
v 0.1 0.8 1.3
v 0.1 0.9 1.3
v 0.1 1 1.3
v 0.2 0.4 1.3
v 0.2 0.5 1.3
v 0.2 0.6 1.3
v 0.2 0.8 1.3
v 0.2 1.1 1.3
v 0.2 1.2 1.3
v 0.3 0.4 1.3
v 0.3 0.5 1.3
v 0.3 0.6 1.3
v 0.3 0.7 1.3
v 0.3 0.8 1.3
v 0.3 0.9 1.3
v 0.4 0.4 1.3
v 0.4 0.5 1.3
v 0.4 0.6 1.3
v 0.4 0.7 1.3
v 0.4 0.8 1.3
v 0.4 0.9 1.3
v 0.4 1.2 1.3
v -1 0.9 1.2
v -1 1 1.2
v -1 1.1 1.2
v -1 1.2 1.2
v -0.7 0 1.2
v -0.7 0.1 1.2
v -0.7 0.9 1.2
v -0.7 1 1.2
v -0.7 1.1 1.2
v -0.7 1.2 1.2
v -0.7 2.1 1.2
v -0.6 0.8 1.2
v -0.6 1 1.2
v -0.6 1.8 1.2
v -0.6 2 1.2
v -0.5 0.7 1.2
v -0.5 0.8 1.2
v -0.5 1 1.2
v -0.5 1.1 1.2
v -0.5 1.2 1.2
v -0.5 1.3 1.2
v -0.5 1.4 1.2
v -0.5 1.5 1.2
v -0.5 1.6 1.2
v -0.5 1.7 1.2
v -0.4 1.1 1.2
v -0.4 1.2 1.2
v -0.4 1.4 1.2
v -0.4 1.5 1.2
v -0.4 1.8 1.2
v -0.4 2 1.2
v -0.3 0 1.2
v -0.3 0.1 1.2
v -0.3 0.4 1.2
v -0.3 0.5 1.2
v -0.3 0.6 1.2
v -0.3 0.7 1.2
v -0.3 0.8 1.2
v -0.3 0.9 1.2
v -0.3 1.2 1.2
v -0.3 1.3 1.2
v -0.3 1.5 1.2
v -0.3 1.6 1.2
v -0.3 1.7 1.2
v -0.3 1.8 1.2
v -0.3 2.1 1.2
v -0.2 0.6 1.2
v -0.2 0.7 1.2
v -0.2 1.2 1.2
v -0.2 1.4 1.2
v -0.2 1.5 1.2
v -0.1 1.2 1.2
v -0.1 1.4 1.2
v -0.1 1.6 1.2
v 0 0.5 1.2
v 0 0.6 1.2
v 0 0.8 1.2
v 0 0.9 1.2
v 0 1 1.2
v 0 1.6 1.2
v 0 1.7 1.2
v 0.1 0.5 1.2
v 0.1 0.6 1.2
v 0.1 0.8 1.2
v 0.1 0.9 1.2
v 0.1 1 1.2
v 0.1 1.6 1.2
v 0.1 1.7 1.2
v 0.2 1.2 1.2
v 0.2 1.4 1.2
v 0.2 1.6 1.2
v 0.3 0.6 1.2
v 0.3 0.7 1.2
v 0.3 1.2 1.2
v 0.3 1.3 1.2
v 0.3 1.4 1.2
v 0.3 1.5 1.2
v 0.4 0 1.2
v 0.4 0.1 1.2
v 0.4 0.4 1.2
v 0.4 0.5 1.2
v 0.4 0.6 1.2
v 0.4 0.7 1.2
v 0.4 0.8 1.2
v 0.4 0.9 1.2
v 0.4 1.2 1.2
v 0.4 1.4 1.2
v 0.4 1.5 1.2
v 0.4 1.6 1.2
v 0.4 1.7 1.2
v 0.4 1.8 1.2
v 0.4 2.1 1.2
v 0.5 1.1 1.2
v 0.5 1.2 1.2
v 0.5 1.3 1.2
v 0.5 1.5 1.2
v 0.5 1.8 1.2
v 0.5 2 1.2
v 0.6 0.7 1.2
v 0.6 0.8 1.2
v 0.6 1 1.2
v 0.6 1.1 1.2
v 0.6 1.2 1.2
v 0.6 1.5 1.2
v 0.6 1.6 1.2
v 0.6 1.7 1.2
v 0.7 0.8 1.2
v 0.7 1 1.2
v 0.7 1.8 1.2
v 0.7 2 1.2
v 0.8 0 1.2
v 0.8 0.1 1.2
v 0.8 0.9 1.2
v 0.8 1 1.2
v 0.8 1.1 1.2
v 0.8 1.2 1.2
v 0.8 2.1 1.2
v 1.1 0.9 1.2
v 1.1 1 1.2
v 1.1 1.1 1.2
v 1.1 1.2 1.2
v -0.1 1.9 -0.1
v -0.1 2.2 -0.1
v 0.2 1.9 -0.1
v 0.2 2.2 -0.1
v -0.7 0 -0.7
v -0.7 0.1 -0.7
v -0.7 0.5 -0.7
v -0.3 0 -0.7
v -0.3 0.1 -0.7
v -0.3 0.5 -0.7
v 0.4 0 -0.7
v 0.4 0.1 -0.7
v 0.4 0.5 -0.7
v 0.8 0 -0.7
v 0.8 0.1 -0.7
v 0.8 0.5 -0.7
v -0.1 1.8 -1.1
v -0.1 1.9 -1.1
v 0.2 1.8 -1.1
v 0.2 1.9 -1.1
v -0.3 0.4 1.2
v -0.3 0.5 1.2
v -0.2 0.4 1.2
v -0.2 0.5 1.2
v -0.1 0.4 1.2
v -0.1 0.5 1.2
v 0.2 0.4 1.2
v 0.2 0.5 1.2
v 0.3 0.4 1.2
v 0.3 0.5 1.2
v 0.4 0.4 1.2
v 0.4 0.5 1.2
v -1 0.9 1.1
v -1 1 1.1
v -1 1.1 1.1
v -1 1.2 1.1
v -0.7 0.9 1.1
v -0.7 1 1.1
v -0.7 1.1 1.1
v -0.7 1.2 1.1
v 0.8 0.9 1.1
v 0.8 1 1.1
v 0.8 1.1 1.1
v 0.8 1.2 1.1
v 1.1 0.9 1.1
v 1.1 1 1.1
v 1.1 1.1 1.1
v 1.1 1.2 1.1
v -0.7 1.8 0.9
v -0.7 2.1 0.9
v -0.3 1.8 0.9
v -0.3 2.1 0.9
v 0.4 1.8 0.9
v 0.4 2.1 0.9
v 0.8 1.8 0.9
v 0.8 2.1 0.9
v -0.7 0 0.8
v -0.7 0.1 0.8
v -0.7 0.5 0.8
v -0.3 0 0.8
v -0.3 0.1 0.8
v -0.3 0.5 0.8
v 0.4 0 0.8
v 0.4 0.1 0.8
v 0.4 0.5 0.8
v 0.8 0 0.8
v 0.8 0.1 0.8
v 0.8 0.5 0.8
v -0.7 0 -1.1
v -0.7 0.1 -1.1
v -0.7 1.8 -1.1
v -0.3 0 -1.1
v -0.3 0.1 -1.1
v -0.3 0.5 -1.1
v -0.1 1 -1.1
v -0.1 1.8 -1.1
v 0.2 1 -1.1
v 0.2 1.8 -1.1
v 0.4 0 -1.1
v 0.4 0.1 -1.1
v 0.4 0.5 -1.1
v 0.8 0 -1.1
v 0.8 0.1 -1.1
v 0.8 1.8 -1.1
v -0.1 1 -1.4
v -0.1 2.2 -1.4
v 0.2 1 -1.4
v 0.2 2.2 -1.4
v -0.7 0 1.2
v -0.3 0 1.2
v 0.4 0 1.2
v 0.8 0 1.2
v -0.6 0 1.1
v -0.4 0 1.1
v 0.5 0 1.1
v 0.7 0 1.1
v -0.6 0 0.9
v -0.4 0 0.9
v 0.5 0 0.9
v 0.7 0 0.9
v -0.7 0 0.8
v -0.3 0 0.8
v 0.4 0 0.8
v 0.8 0 0.8
v -0.7 0 -0.7
v -0.3 0 -0.7
v 0.4 0 -0.7
v 0.8 0 -0.7
v -0.6 0 -0.8
v -0.4 0 -0.8
v 0.5 0 -0.8
v 0.7 0 -0.8
v -0.6 0 -1
v -0.4 0 -1
v 0.5 0 -1
v 0.7 0 -1
v -0.7 0 -1.1
v -0.3 0 -1.1
v 0.4 0 -1.1
v 0.8 0 -1.1
v -0.3 0.4 1.3
v -0.2 0.4 1.3
v -0.1 0.4 1.3
v 0.2 0.4 1.3
v 0.3 0.4 1.3
v 0.4 0.4 1.3
v -0.3 0.4 1.2
v -0.2 0.4 1.2
v -0.1 0.4 1.2
v 0.2 0.4 1.2
v 0.3 0.4 1.2
v 0.4 0.4 1.2
v -0.1 0.5 1.3
v 0 0.5 1.3
v 0.1 0.5 1.3
v 0.2 0.5 1.3
v -0.3 0.5 1.2
v -0.2 0.5 1.2
v -0.1 0.5 1.2
v 0 0.5 1.2
v 0.1 0.5 1.2
v 0.2 0.5 1.2
v 0.3 0.5 1.2
v 0.4 0.5 1.2
v -0.2 0.5 1.1
v -0.1 0.5 1.1
v 0.2 0.5 1.1
v 0.3 0.5 1.1
v -0.3 0.5 0.9
v -0.2 0.5 0.9
v 0.3 0.5 0.9
v 0.4 0.5 0.9
v -0.7 0.5 0.8
v -0.3 0.5 0.8
v 0.4 0.5 0.8
v 0.8 0.5 0.8
v -0.7 0.5 -0.3
v -0.6 0.5 -0.3
v 0.7 0.5 -0.3
v 0.8 0.5 -0.3
v -0.6 0.5 -0.4
v -0.5 0.5 -0.4
v 0.6 0.5 -0.4
v 0.7 0.5 -0.4
v -0.5 0.5 -0.6
v -0.3 0.5 -0.6
v 0.4 0.5 -0.6
v 0.6 0.5 -0.6
v -0.7 0.5 -0.7
v -0.3 0.5 -0.7
v 0.4 0.5 -0.7
v 0.8 0.5 -0.7
v -0.3 0.5 -0.9
v -0.2 0.5 -0.9
v 0.3 0.5 -0.9
v 0.4 0.5 -0.9
v -0.2 0.5 -1
v 0.3 0.5 -1
v -0.3 0.5 -1.1
v 0.4 0.5 -1.1
v 0 0.6 1.3
v 0.1 0.6 1.3
v 0 0.6 1.2
v 0.1 0.6 1.2
v -0.3 0.7 1.3
v -0.2 0.7 1.3
v 0.3 0.7 1.3
v 0.4 0.7 1.3
v -0.3 0.7 1.2
v -0.2 0.7 1.2
v 0.3 0.7 1.2
v 0.4 0.7 1.2
v -1 0.9 1.2
v -0.7 0.9 1.2
v 0.8 0.9 1.2
v 1.1 0.9 1.2
v -1 0.9 1.1
v -0.7 0.9 1.1
v 0.8 0.9 1.1
v 1.1 0.9 1.1
v 0 1 1.3
v 0.1 1 1.3
v 0 1 1.2
v 0.1 1 1.2
v -0.1 1 -1.1
v 0.2 1 -1.1
v -0.1 1 -1.4
v 0.2 1 -1.4
v -1 1.1 1.2
v -0.7 1.1 1.2
v 0.8 1.1 1.2
v 1.1 1.1 1.2
v -1 1.1 1.1
v -0.7 1.1 1.1
v 0.8 1.1 1.1
v 1.1 1.1 1.1
v -0.1 1.9 -0.1
v 0.2 1.9 -0.1
v -0.1 1.9 -1.1
v 0.2 1.9 -1.1
v -0.3 0.6 1.3
v -0.2 0.6 1.3
v 0.3 0.6 1.3
v 0.4 0.6 1.3
v -0.3 0.6 1.2
v -0.2 0.6 1.2
v 0.3 0.6 1.2
v 0.4 0.6 1.2
v 0 0.8 1.3
v 0.1 0.8 1.3
v 0 0.8 1.2
v 0.1 0.8 1.2
v -1 1 1.2
v -0.7 1 1.2
v 0.8 1 1.2
v 1.1 1 1.2
v -1 1 1.1
v -0.7 1 1.1
v 0.8 1 1.1
v 1.1 1 1.1
v -0.3 1.2 1.3
v -0.1 1.2 1.3
v 0.2 1.2 1.3
v 0.4 1.2 1.3
v -1 1.2 1.2
v -0.7 1.2 1.2
v -0.3 1.2 1.2
v -0.2 1.2 1.2
v -0.1 1.2 1.2
v 0.2 1.2 1.2
v 0.3 1.2 1.2
v 0.4 1.2 1.2
v 0.8 1.2 1.2
v 1.1 1.2 1.2
v -1 1.2 1.1
v -0.7 1.2 1.1
v 0.8 1.2 1.1
v 1.1 1.2 1.1
v -0.3 1.8 1.2
v 0.4 1.8 1.2
v -0.7 1.8 0.9
v -0.3 1.8 0.9
v 0.4 1.8 0.9
v 0.8 1.8 0.9
v -0.7 1.8 -1.1
v -0.1 1.8 -1.1
v 0.2 1.8 -1.1
v 0.8 1.8 -1.1
v -0.7 2.1 1.2
v -0.3 2.1 1.2
v 0.4 2.1 1.2
v 0.8 2.1 1.2
v -0.7 2.1 0.9
v -0.3 2.1 0.9
v 0.4 2.1 0.9
v 0.8 2.1 0.9
v -0.1 2.2 -0.1
v 0.2 2.2 -0.1
v -0.1 2.2 -1.4
v 0.2 2.2 -1.4

# faces
f 3/5/1 2/5/1 1/5/1
f 4/5/1 2/5/1 3/5/1
f 7/1/1 6/1/1 5/1/1
f 8/1/1 6/1/1 7/1/1
f 13/5/1 10/5/1 9/5/1
f 14/5/1 10/5/1 13/5/1
f 15/5/1 12/5/1 11/5/1
f 16/5/1 12/5/1 15/5/1
f 17/7/1 14/7/1 13/7/1
f 19/7/1 16/7/1 15/7/1
f 20/5/1 18/5/1 17/5/1
f 21/7/1 19/7/1 18/7/1
f 21/5/1 18/5/1 20/5/1
f 22/5/1 20/5/1 17/5/1
f 22/7/1 17/7/1 13/7/1
f 23/7/1 21/7/1 20/7/1
f 23/5/1 20/5/1 22/5/1
f 24/7/1 22/7/1 13/7/1
f 24/7/1 23/7/1 22/7/1
f 25/7/1 23/7/1 24/7/1
f 27/7/1 23/7/1 25/7/1
f 28/7/1 27/7/1 26/7/1
f 29/7/1 23/7/1 27/7/1
f 29/7/1 27/7/1 28/7/1
f 31/7/1 23/7/1 29/7/1
f 32/7/1 23/7/1 31/7/1
f 32/7/1 31/7/1 30/7/1
f 33/7/1 19/7/1 21/7/1
f 33/7/1 23/7/1 32/7/1
f 33/7/1 21/7/1 23/7/1
f 33/7/1 16/7/1 19/7/1
f 34/7/1 32/7/1 30/7/1
f 35/7/1 32/7/1 34/7/1
f 38/7/1 37/7/1 36/7/1
f 39/7/1 37/7/1 38/7/1
f 40/3/1 39/3/1 38/3/1
f 41/3/1 39/3/1 40/3/1
f 44/7/1 43/7/1 42/7/1
f 45/7/1 43/7/1 44/7/1
f 46/3/1 45/3/1 44/3/1
f 47/3/1 45/3/1 46/3/1
f 48/1/1 47/1/1 46/1/1
f 49/1/1 47/1/1 48/1/1
f 52/3/1 51/3/1 50/3/1
f 53/3/1 51/3/1 52/3/1
f 56/7/1 55/7/1 54/7/1
f 58/7/1 55/7/1 56/7/1
f 59/7/1 58/7/1 57/7/1
f 60/7/1 55/7/1 58/7/1
f 60/7/1 58/7/1 59/7/1
f 63/7/1 62/7/1 61/7/1
f 64/7/1 62/7/1 63/7/1
f 67/3/1 66/3/1 65/3/1
f 68/3/1 66/3/1 67/3/1
f 69/1/1 68/1/1 67/1/1
f 70/1/1 68/1/1 69/1/1
f 73/3/1 72/3/1 71/3/1
f 74/3/1 72/3/1 73/3/1
f 79/5/1 76/5/1 75/5/1
f 80/5/1 76/5/1 79/5/1
f 81/5/1 78/5/1 77/5/1
f 82/5/1 78/5/1 81/5/1
f 83/7/1 80/7/1 79/7/1
f 84/7/1 80/7/1 83/7/1
f 85/7/1 80/7/1 84/7/1
f 86/7/1 80/7/1 85/7/1
f 87/7/1 82/7/1 81/7/1
f 88/7/1 82/7/1 87/7/1
f 89/7/1 82/7/1 88/7/1
f 92/7/1 91/7/1 90/7/1
f 93/7/1 91/7/1 92/7/1
f 94/5/2 95/5/2 98/5/2
f 98/5/2 95/5/2 99/5/2
f 96/5/2 97/5/2 100/5/2
f 100/5/2 97/5/2 101/5/2
f 98/7/2 99/7/2 102/7/2
f 102/7/2 99/7/2 103/7/2
f 103/7/2 99/7/2 104/7/2
f 104/7/2 99/7/2 105/7/2
f 100/7/2 101/7/2 106/7/2
f 106/7/2 101/7/2 107/7/2
f 107/7/2 101/7/2 108/7/2
f 109/7/2 110/7/2 111/7/2
f 111/7/2 110/7/2 112/7/2
f 113/3/2 114/3/2 115/3/2
f 115/3/2 114/3/2 116/3/2
f 117/7/2 118/7/2 119/7/2
f 119/7/2 118/7/2 120/7/2
f 121/3/2 122/3/2 123/3/2
f 123/3/2 122/3/2 124/3/2
f 123/1/2 124/1/2 125/1/2
f 125/1/2 124/1/2 126/1/2
f 127/7/2 128/7/2 129/7/2
f 129/7/2 128/7/2 131/7/2
f 130/7/2 131/7/2 132/7/2
f 131/7/2 128/7/2 133/7/2
f 132/7/2 131/7/2 133/7/2
f 134/7/2 135/7/2 136/7/2
f 136/7/2 135/7/2 137/7/2
f 138/7/2 139/7/2 140/7/2
f 140/7/2 139/7/2 141/7/2
f 140/3/2 141/3/2 142/3/2
f 142/3/2 141/3/2 143/3/2
f 144/3/2 145/3/2 146/3/2
f 146/3/2 145/3/2 147/3/2
f 146/7/2 147/7/2 148/7/2
f 148/7/2 147/7/2 149/7/2
f 148/1/2 149/1/2 150/1/2
f 150/1/2 149/1/2 151/1/2
f 152/5/2 153/5/2 156/5/2
f 156/5/2 153/5/2 157/5/2
f 154/5/2 155/5/2 158/5/2
f 158/5/2 155/5/2 159/5/2
f 156/7/2 157/7/2 160/7/2
f 158/7/2 159/7/2 162/7/2
f 160/5/2 161/5/2 163/5/2
f 161/7/2 162/7/2 164/7/2
f 163/5/2 161/5/2 164/5/2
f 160/5/2 163/5/2 165/5/2
f 156/7/2 160/7/2 165/7/2
f 163/7/2 164/7/2 166/7/2
f 165/5/2 163/5/2 166/5/2
f 156/7/2 165/7/2 167/7/2
f 165/7/2 166/7/2 167/7/2
f 167/7/2 166/7/2 168/7/2
f 168/7/2 166/7/2 170/7/2
f 169/7/2 170/7/2 171/7/2
f 170/7/2 166/7/2 172/7/2
f 171/7/2 170/7/2 172/7/2
f 172/7/2 166/7/2 174/7/2
f 174/7/2 166/7/2 175/7/2
f 173/7/2 174/7/2 175/7/2
f 164/7/2 162/7/2 176/7/2
f 175/7/2 166/7/2 176/7/2
f 166/7/2 164/7/2 176/7/2
f 162/7/2 159/7/2 176/7/2
f 173/7/2 175/7/2 177/7/2
f 177/7/2 175/7/2 178/7/2
f 179/5/2 180/5/2 181/5/2
f 181/5/2 180/5/2 182/5/2
f 183/5/2 184/5/2 185/5/2
f 185/5/2 184/5/2 186/5/2
f 194/7/3 188/7/3 187/7/3
f 195/3/3 189/3/3 188/3/3
f 195/7/3 188/7/3 194/7/3
f 196/3/3 189/3/3 195/3/3
f 197/7/3 191/7/3 190/7/3
f 198/3/3 192/3/3 191/3/3
f 198/7/3 191/7/3 197/7/3
f 199/1/3 193/1/3 192/1/3
f 199/3/3 192/3/3 198/3/3
f 200/3/3 198/3/3 197/3/3
f 200/3/3 196/3/3 195/3/3
f 200/3/3 197/3/3 196/3/3
f 200/3/3 195/3/3 194/3/3
f 201/3/3 198/3/3 200/3/3
f 202/3/3 198/3/3 201/3/3
f 203/7/3 199/7/3 198/7/3
f 203/3/3 198/3/3 202/3/3
f 204/1/3 193/1/3 199/1/3
f 204/7/3 199/7/3 203/7/3
f 205/1/3 193/1/3 204/1/3
f 206/1/3 193/1/3 205/1/3
f 207/7/3 202/7/3 201/7/3
f 208/7/3 202/7/3 207/7/3
f 209/3/3 203/3/3 202/3/3
f 209/7/3 202/7/3 208/7/3
f 209/3/3 204/3/3 203/3/3
f 210/3/3 204/3/3 209/3/3
f 211/1/3 205/1/3 204/1/3
f 211/3/3 204/3/3 210/3/3
f 212/1/3 205/1/3 211/1/3
f 214/3/3 209/3/3 208/3/3
f 215/7/3 210/7/3 209/7/3
f 215/3/3 209/3/3 214/3/3
f 216/7/3 210/7/3 215/7/3
f 218/1/3 205/1/3 212/1/3
f 220/7/3 214/7/3 213/7/3
f 221/3/3 217/3/3 216/3/3
f 221/3/3 215/3/3 214/3/3
f 221/7/3 214/7/3 220/7/3
f 221/3/3 216/3/3 215/3/3
f 222/3/3 217/3/3 221/3/3
f 223/2/3 206/2/3 205/2/3
f 223/1/3 218/1/3 217/1/3
f 223/1/3 205/1/3 218/1/3
f 224/2/3 206/2/3 223/2/3
f 225/3/3 220/3/3 219/3/3
f 225/3/3 221/3/3 220/3/3
f 226/3/3 221/3/3 225/3/3
f 227/7/3 222/7/3 221/7/3
f 227/3/3 221/3/3 226/3/3
f 228/7/3 222/7/3 227/7/3
f 229/3/3 217/3/3 222/3/3
f 229/7/3 222/7/3 228/7/3
f 230/1/3 224/1/3 223/1/3
f 230/3/3 217/3/3 229/3/3
f 230/1/3 223/1/3 217/1/3
f 231/7/3 226/7/3 225/7/3
f 232/3/3 227/3/3 226/3/3
f 232/7/3 226/7/3 231/7/3
f 233/3/3 227/3/3 232/3/3
f 234/3/3 229/3/3 228/3/3
f 235/7/3 230/7/3 229/7/3
f 235/3/3 229/3/3 234/3/3
f 236/1/3 224/1/3 230/1/3
f 236/7/3 230/7/3 235/7/3
f 237/1/3 224/1/3 236/1/3
f 244/5/3 239/5/3 238/5/3
f 245/5/3 239/5/3 244/5/3
f 246/1/3 241/1/3 240/1/3
f 247/1/3 241/1/3 246/1/3
f 249/7/3 245/7/3 244/7/3
f 249/7/3 248/7/3 247/7/3
f 249/7/3 247/7/3 246/7/3
f 249/7/3 246/7/3 245/7/3
f 249/7/3 244/7/3 243/7/3
f 250/7/3 248/7/3 249/7/3
f 251/7/3 248/7/3 250/7/3
f 252/7/3 248/7/3 251/7/3
f 253/7/3 249/7/3 243/7/3
f 254/5/3 250/5/3 249/5/3
f 254/7/3 249/7/3 253/7/3
f 255/7/3 251/7/3 250/7/3
f 255/5/3 250/5/3 254/5/3
f 256/7/3 251/7/3 255/7/3
f 257/7/3 251/7/3 256/7/3
f 258/7/3 251/7/3 257/7/3
f 259/7/3 251/7/3 258/7/3
f 260/7/3 251/7/3 259/7/3
f 261/7/3 251/7/3 260/7/3
f 262/7/3 251/7/3 261/7/3
f 263/5/3 254/5/3 253/5/3
f 263/5/3 255/5/3 254/5/3
f 263/5/3 256/5/3 255/5/3
f 263/7/3 257/7/3 256/7/3
f 264/4/3 258/4/3 257/4/3
f 264/7/3 257/7/3 263/7/3
f 265/1/3 260/1/3 259/1/3
f 265/6/3 259/6/3 258/6/3
f 266/7/3 261/7/3 260/7/3
f 266/1/3 260/1/3 265/1/3
f 267/7/3 251/7/3 262/7/3
f 267/2/3 252/2/3 251/2/3
f 268/7/3 248/7/3 252/7/3
f 268/2/3 252/2/3 267/2/3
f 269/5/3 243/5/3 242/5/3
f 270/7/3 253/7/3 243/7/3
f 270/5/3 243/5/3 269/5/3
f 271/7/3 253/7/3 270/7/3
f 272/7/3 253/7/3 271/7/3
f 273/7/3 253/7/3 272/7/3
f 274/5/3 263/5/3 253/5/3
f 274/7/3 253/7/3 273/7/3
f 274/5/3 264/5/3 263/5/3
f 275/5/3 264/5/3 274/5/3
f 276/5/3 264/5/3 275/5/3
f 277/4/3 258/4/3 264/4/3
f 277/5/3 264/5/3 276/5/3
f 278/6/3 266/6/3 265/6/3
f 278/4/3 258/4/3 277/4/3
f 278/6/3 265/6/3 258/6/3
f 279/7/3 261/7/3 266/7/3
f 279/6/3 266/6/3 278/6/3
f 280/5/3 262/5/3 261/5/3
f 280/7/3 261/7/3 279/7/3
f 281/7/3 267/7/3 262/7/3
f 281/5/3 262/5/3 280/5/3
f 281/7/3 268/7/3 267/7/3
f 282/7/3 268/7/3 281/7/3
f 283/7/3 248/7/3 268/7/3
f 283/7/3 268/7/3 282/7/3
f 284/7/3 274/7/3 273/7/3
f 285/7/3 274/7/3 284/7/3
f 286/4/3 278/4/3 277/4/3
f 286/4/3 279/4/3 278/4/3
f 287/4/3 279/4/3 286/4/3
f 288/7/3 282/7/3 281/7/3
f 288/4/3 279/4/3 287/4/3
f 288/7/3 280/7/3 279/7/3
f 288/7/3 281/7/3 280/7/3
f 289/5/3 287/5/3 286/5/3
f 290/7/3 288/7/3 287/7/3
f 290/5/3 287/5/3 289/5/3
f 291/7/3 282/7/3 288/7/3
f 291/7/3 288/7/3 290/7/3
f 297/5/3 290/5/3 289/5/3
f 297/5/3 291/5/3 290/5/3
f 297/7/3 282/7/3 291/7/3
f 298/7/3 282/7/3 297/7/3
f 299/5/3 293/5/3 292/5/3
f 300/5/3 293/5/3 299/5/3
f 301/5/3 296/5/3 295/5/3
f 301/5/3 295/5/3 294/5/3
f 302/5/3 296/5/3 301/5/3
f 303/5/3 296/5/3 302/5/3
f 304/5/3 297/5/3 289/5/3
f 304/5/3 298/5/3 297/5/3
f 305/7/3 282/7/3 298/7/3
f 305/5/3 298/5/3 304/5/3
f 306/5/3 304/5/3 289/5/3
f 307/5/3 304/5/3 306/5/3
f 308/7/3 305/7/3 304/7/3
f 308/5/3 304/5/3 307/5/3
f 311/5/3 307/5/3 306/5/3
f 312/5/3 307/5/3 311/5/3
f 313/7/3 308/7/3 307/7/3
f 313/5/3 307/5/3 312/5/3
f 314/7/3 308/7/3 313/7/3
f 319/7/3 310/7/3 309/7/3
f 320/7/3 310/7/3 319/7/3
f 323/4/3 312/4/3 311/4/3
f 324/6/3 313/6/3 312/6/3
f 324/1/3 314/1/3 313/1/3
f 325/7/3 308/7/3 314/7/3
f 325/1/3 314/1/3 324/1/3
f 326/7/3 305/7/3 308/7/3
f 326/7/3 308/7/3 325/7/3
f 327/7/3 282/7/3 305/7/3
f 327/7/3 305/7/3 326/7/3
f 328/7/3 282/7/3 327/7/3
f 330/5/3 322/5/3 321/5/3
f 330/5/3 323/5/3 322/5/3
f 330/5/3 321/5/3 320/5/3
f 331/4/3 312/4/3 323/4/3
f 331/5/3 323/5/3 330/5/3
f 332/6/3 325/6/3 324/6/3
f 332/4/3 312/4/3 331/4/3
f 332/6/3 324/6/3 312/6/3
f 333/7/3 326/7/3 325/7/3
f 333/6/3 325/6/3 332/6/3
f 334/7/3 329/7/3 328/7/3
f 334/7/3 328/7/3 327/7/3
f 335/7/3 329/7/3 334/7/3
f 336/7/3 318/7/3 317/7/3
f 336/5/3 330/5/3 320/5/3
f 336/7/3 317/7/3 316/7/3
f 336/7/3 319/7/3 318/7/3
f 336/7/3 320/7/3 319/7/3
f 337/5/3 330/5/3 336/5/3
f 338/5/3 330/5/3 337/5/3
f 339/7/3 331/7/3 330/7/3
f 339/5/3 330/5/3 338/5/3
f 340/4/3 332/4/3 331/4/3
f 340/7/3 331/7/3 339/7/3
f 340/4/3 333/4/3 332/4/3
f 341/7/3 326/7/3 333/7/3
f 341/4/3 333/4/3 340/4/3
f 342/5/3 327/5/3 326/5/3
f 342/7/3 326/7/3 341/7/3
f 343/7/3 334/7/3 327/7/3
f 343/5/3 327/5/3 342/5/3
f 344/5/3 338/5/3 337/5/3
f 344/7/3 337/7/3 336/7/3
f 345/7/3 339/7/3 338/7/3
f 345/5/3 338/5/3 344/5/3
f 345/7/3 340/7/3 339/7/3
f 345/7/3 343/7/3 342/7/3
f 345/7/3 341/7/3 340/7/3
f 345/7/3 342/7/3 341/7/3
f 346/7/3 334/7/3 343/7/3
f 346/7/3 343/7/3 345/7/3
f 346/2/3 335/2/3 334/2/3
f 347/7/3 329/7/3 335/7/3
f 347/2/3 335/2/3 346/2/3
f 348/5/3 316/5/3 315/5/3
f 349/7/3 344/7/3 336/7/3
f 349/5/3 316/5/3 348/5/3
f 349/7/3 346/7/3 345/7/3
f 349/7/3 347/7/3 346/7/3
f 349/7/3 336/7/3 316/7/3
f 349/7/3 345/7/3 344/7/3
f 350/7/3 347/7/3 349/7/3
f 351/7/3 347/7/3 350/7/3
f 352/7/3 347/7/3 351/7/3
f 353/7/3 347/7/3 352/7/3
f 354/7/3 329/7/3 347/7/3
f 354/7/3 347/7/3 353/7/3
f 355/5/3 351/5/3 350/5/3
f 356/5/3 351/5/3 355/5/3
f 357/5/3 353/5/3 352/5/3
f 358/5/3 353/5/3 357/5/3
f 361/7/3 360/7/3 359/7/3
f 362/7/3 360/7/3 361/7/3
f 366/5/3 364/5/3 363/5/3
f 367/7/3 365/7/3 364/7/3
f 367/5/3 364/5/3 366/5/3
f 368/7/3 365/7/3 367/7/3
f 372/5/3 370/5/3 369/5/3
f 373/7/3 371/7/3 370/7/3
f 373/5/3 370/5/3 372/5/3
f 374/7/3 371/7/3 373/7/3
f 377/7/3 376/7/3 375/7/3
f 378/7/3 376/7/3 377/7/3
f 379/7/4 380/7/4 381/7/4
f 381/7/4 380/7/4 382/7/4
f 381/3/4 382/3/4 383/3/4
f 383/3/4 382/3/4 384/3/4
f 385/3/4 386/3/4 387/3/4
f 387/3/4 386/3/4 388/3/4
f 387/7/4 388/7/4 389/7/4
f 389/7/4 388/7/4 390/7/4
f 391/5/4 392/5/4 395/5/4
f 395/5/4 392/5/4 396/5/4
f 393/1/4 394/1/4 397/1/4
f 397/1/4 394/1/4 398/1/4
f 399/5/4 400/5/4 403/5/4
f 403/5/4 400/5/4 404/5/4
f 401/5/4 402/5/4 405/5/4
f 405/5/4 402/5/4 406/5/4
f 407/7/4 408/7/4 409/7/4
f 409/7/4 408/7/4 410/7/4
f 411/7/4 412/7/4 413/7/4
f 413/7/4 412/7/4 414/7/4
f 415/5/4 416/5/4 418/5/4
f 416/7/4 417/7/4 419/7/4
f 418/5/4 416/5/4 419/5/4
f 419/7/4 417/7/4 420/7/4
f 421/5/4 422/5/4 424/5/4
f 422/7/4 423/7/4 425/7/4
f 424/5/4 422/5/4 425/5/4
f 425/7/4 423/7/4 426/7/4
f 427/5/4 428/5/4 430/5/4
f 428/7/4 429/7/4 431/7/4
f 430/5/4 428/5/4 431/5/4
f 431/7/4 429/7/4 432/7/4
f 432/7/4 429/7/4 433/7/4
f 433/7/4 429/7/4 434/7/4
f 432/7/4 433/7/4 435/7/4
f 432/7/4 435/7/4 439/7/4
f 435/7/4 436/7/4 439/7/4
f 437/5/4 438/5/4 440/5/4
f 438/7/4 439/7/4 441/7/4
f 440/5/4 438/5/4 441/5/4
f 439/7/4 436/7/4 442/7/4
f 441/7/4 439/7/4 442/7/4
f 443/7/4 444/7/4 445/7/4
f 445/7/4 444/7/4 446/7/4
f 451/5/5 448/5/5 447/5/5
f 452/5/5 448/5/5 451/5/5
f 453/5/5 450/5/5 449/5/5
f 454/5/5 450/5/5 453/5/5
f 455/5/5 451/5/5 447/5/5
f 455/2/5 452/2/5 451/2/5
f 456/5/5 448/5/5 452/5/5
f 456/2/5 452/2/5 455/2/5
f 457/2/5 454/2/5 453/2/5
f 457/5/5 453/5/5 449/5/5
f 458/5/5 450/5/5 454/5/5
f 458/2/5 454/2/5 457/2/5
f 459/5/5 455/5/5 447/5/5
f 459/5/5 456/5/5 455/5/5
f 460/5/5 448/5/5 456/5/5
f 460/5/5 456/5/5 459/5/5
f 461/5/5 457/5/5 449/5/5
f 461/5/5 458/5/5 457/5/5
f 462/5/5 450/5/5 458/5/5
f 462/5/5 458/5/5 461/5/5
f 467/5/5 464/5/5 463/5/5
f 468/5/5 464/5/5 467/5/5
f 469/5/5 466/5/5 465/5/5
f 470/5/5 466/5/5 469/5/5
f 471/5/5 467/5/5 463/5/5
f 471/2/5 468/2/5 467/2/5
f 472/5/5 464/5/5 468/5/5
f 472/2/5 468/2/5 471/2/5
f 473/2/5 470/2/5 469/2/5
f 473/5/5 469/5/5 465/5/5
f 474/5/5 466/5/5 470/5/5
f 474/2/5 470/2/5 473/2/5
f 475/5/5 471/5/5 463/5/5
f 475/5/5 472/5/5 471/5/5
f 476/5/5 464/5/5 472/5/5
f 476/5/5 472/5/5 475/5/5
f 477/5/5 473/5/5 465/5/5
f 477/5/5 474/5/5 473/5/5
f 478/5/5 466/5/5 474/5/5
f 478/5/5 474/5/5 477/5/5
f 485/7/5 480/7/5 479/7/5
f 486/3/5 481/3/5 480/3/5
f 486/7/5 480/7/5 485/7/5
f 487/3/5 481/3/5 486/3/5
f 488/3/5 483/3/5 482/3/5
f 489/7/5 484/7/5 483/7/5
f 489/3/5 483/3/5 488/3/5
f 490/7/5 484/7/5 489/7/5
f 497/7/5 492/7/5 491/7/5
f 498/7/5 492/7/5 497/7/5
f 499/7/5 494/7/5 493/7/5
f 500/7/5 494/7/5 499/7/5
f 503/7/5 496/7/5 495/7/5
f 503/7/5 497/7/5 496/7/5
f 504/5/5 498/5/5 497/5/5
f 504/7/5 497/7/5 503/7/5
f 504/5/5 499/5/5 498/5/5
f 504/5/5 500/5/5 499/5/5
f 505/7/5 502/7/5 501/7/5
f 505/5/5 500/5/5 504/5/5
f 505/7/5 501/7/5 500/7/5
f 506/7/5 502/7/5 505/7/5
f 507/7/5 503/7/5 495/7/5
f 508/5/5 504/5/5 503/5/5
f 508/7/5 503/7/5 507/7/5
f 508/5/5 505/5/5 504/5/5
f 508/5/5 506/5/5 505/5/5
f 509/7/5 502/7/5 506/7/5
f 509/5/5 506/5/5 508/5/5
f 510/7/5 502/7/5 509/7/5
f 512/5/5 508/5/5 507/5/5
f 512/5/5 509/5/5 508/5/5
f 512/5/5 510/5/5 509/5/5
f 513/5/5 510/5/5 512/5/5
f 515/5/5 513/5/5 512/5/5
f 515/5/5 514/5/5 513/5/5
f 515/5/5 512/5/5 511/5/5
f 516/5/5 514/5/5 515/5/5
f 517/5/5 514/5/5 516/5/5
f 518/5/5 514/5/5 517/5/5
f 519/7/5 516/7/5 515/7/5
f 519/5/5 517/5/5 516/5/5
f 520/5/5 517/5/5 519/5/5
f 521/5/5 517/5/5 520/5/5
f 522/7/5 518/7/5 517/7/5
f 522/5/5 517/5/5 521/5/5
f 523/5/5 521/5/5 520/5/5
f 523/7/5 520/7/5 519/7/5
f 524/5/5 521/5/5 523/5/5
f 525/5/5 521/5/5 524/5/5
f 526/7/5 522/7/5 521/7/5
f 526/5/5 521/5/5 525/5/5
f 527/7/5 519/7/5 515/7/5
f 527/7/5 523/7/5 519/7/5
f 527/7/5 524/7/5 523/7/5
f 528/5/5 525/5/5 524/5/5
f 528/7/5 524/7/5 527/7/5
f 529/7/5 526/7/5 525/7/5
f 529/5/5 525/5/5 528/5/5
f 530/7/5 518/7/5 522/7/5
f 530/7/5 526/7/5 529/7/5
f 530/7/5 522/7/5 526/7/5
f 531/5/5 529/5/5 528/5/5
f 532/5/5 529/5/5 531/5/5
f 533/5/5 529/5/5 532/5/5
f 534/5/5 529/5/5 533/5/5
f 535/7/5 532/7/5 531/7/5
f 535/5/5 533/5/5 532/5/5
f 536/7/5 534/7/5 533/7/5
f 536/5/5 533/5/5 535/5/5
f 537/7/5 535/7/5 531/7/5
f 537/7/5 536/7/5 535/7/5
f 538/7/5 534/7/5 536/7/5
f 538/7/5 536/7/5 537/7/5
f 541/3/5 540/3/5 539/3/5
f 542/3/5 540/3/5 541/3/5
f 547/7/5 544/7/5 543/7/5
f 548/7/5 544/7/5 547/7/5
f 549/3/5 546/3/5 545/3/5
f 550/3/5 546/3/5 549/3/5
f 555/5/5 552/5/5 551/5/5
f 556/5/5 552/5/5 555/5/5
f 557/5/5 554/5/5 553/5/5
f 558/5/5 554/5/5 557/5/5
f 561/1/5 560/1/5 559/1/5
f 562/1/5 560/1/5 561/1/5
f 565/7/5 564/7/5 563/7/5
f 566/7/5 564/7/5 565/7/5
f 571/1/5 568/1/5 567/1/5
f 572/1/5 568/1/5 571/1/5
f 573/5/5 570/5/5 569/5/5
f 574/5/5 570/5/5 573/5/5
f 577/7/5 576/7/5 575/7/5
f 578/7/5 576/7/5 577/7/5
f 579/3/6 580/3/6 583/3/6
f 583/3/6 580/3/6 584/3/6
f 581/3/6 582/3/6 585/3/6
f 585/3/6 582/3/6 586/3/6
f 587/7/6 588/7/6 589/7/6
f 589/7/6 588/7/6 590/7/6
f 591/5/6 592/5/6 595/5/6
f 595/5/6 592/5/6 596/5/6
f 593/5/6 594/5/6 597/5/6
f 597/5/6 594/5/6 598/5/6
f 599/1/6 600/1/6 605/1/6
f 605/1/6 600/1/6 606/1/6
f 600/2/6 601/2/6 607/2/6
f 606/1/6 600/1/6 607/1/6
f 601/1/6 602/1/6 608/1/6
f 607/2/6 601/2/6 608/2/6
f 608/1/6 602/1/6 609/1/6
f 609/1/6 602/1/6 610/1/6
f 603/1/6 604/1/6 613/1/6
f 613/1/6 604/1/6 614/1/6
f 611/5/6 612/5/6 615/5/6
f 615/5/6 612/5/6 616/5/6
f 617/7/6 618/7/6 620/7/6
f 620/7/6 618/7/6 621/7/6
f 619/7/6 620/7/6 623/7/6
f 621/7/6 622/7/6 623/7/6
f 620/7/6 621/7/6 623/7/6
f 623/7/6 622/7/6 624/7/6
f 624/7/6 622/7/6 625/7/6
f 625/7/6 622/7/6 626/7/6
f 627/7/6 628/7/6 631/7/6
f 631/7/6 628/7/6 632/7/6
f 629/7/6 630/7/6 633/7/6
f 633/7/6 630/7/6 634/7/6
f 635/7/6 636/7/6 637/7/6
f 637/7/6 636/7/6 638/7/6
